<mxfile host="app.diagrams.net" modified="2023-12-11T02:21:38.477Z" agent="Mozilla/5.0 (Macintosh; Intel Mac OS X 10_15_7) AppleWebKit/537.36 (KHTML, like Gecko) Chrome/118.0.0.0 Safari/537.36" version="22.1.7" etag="JuEFWZcXzat1IzJgos4Q" type="github">
  <diagram name="Page-1" id="mMLUF2c-9hiYjJC7ud2A">
    <mxGraphModel>
      <root>
        <mxCell id="0" />
        <mxCell id="1" parent="0" />
      </root>
    </mxGraphModel>
  </diagram>
</mxfile>
